<svg height="512pt" viewBox="0 -21 512 512" width="512pt" xmlns="http://www.w3.org/2000/svg"><path d="m394.667969 0h-341.335938c-29.394531 0-53.332031 23.9375-53.332031 53.332031v362.667969c0 29.398438 23.9375 53.332031 53.332031 53.332031h341.335938c29.394531 0 53.332031-23.933593 53.332031-53.332031v-362.667969c0-29.394531-23.9375-53.332031-53.332031-53.332031zm0 0" fill="#455a64"/><path d="m426.667969 170.667969v-64h-405.335938v309.332031c0 17.644531 14.359375 32 32 32h341.335938c17.640625 0 32-14.355469 32-32v-53.332031h21.332031v-192zm0 0" fill="#cfd8dc"/><path d="m394.667969 469.332031h-341.335938c-29.417969 0-53.332031-23.914062-53.332031-53.332031v-362.667969c0-29.417969 23.914062-53.332031 53.332031-53.332031h341.335938c29.417969 0 53.332031 23.914062 53.332031 53.332031v128c0 5.890625-4.777344 10.667969-10.667969 10.667969-5.886719 0-10.664062-4.777344-10.664062-10.667969v-128c0-17.640625-14.359375-32-32-32h-341.335938c-17.640625 0-32 14.359375-32 32v362.667969c0 17.644531 14.359375 32 32 32h341.335938c17.640625 0 32-14.355469 32-32v-64c0-5.886719 4.777343-10.667969 10.664062-10.667969 5.890625 0 10.667969 4.78125 10.667969 10.667969v64c0 29.417969-23.914062 53.332031-53.332031 53.332031zm0 0"/><path d="m437.332031 106.667969h-426.664062c-5.890625 0-10.667969-4.78125-10.667969-10.667969s4.777344-10.667969 10.667969-10.667969h426.664062c5.890625 0 10.667969 4.78125 10.667969 10.667969s-4.777344 10.667969-10.667969 10.667969zm0 0"/><path d="m64 53.332031c0 5.890625-4.777344 10.667969-10.667969 10.667969s-10.664062-4.777344-10.664062-10.667969 4.773437-10.664062 10.664062-10.664062 10.667969 4.773437 10.667969 10.664062zm0 0"/><path d="m106.667969 53.332031c0 5.890625-4.777344 10.667969-10.667969 10.667969s-10.667969-4.777344-10.667969-10.667969 4.777344-10.664062 10.667969-10.664062 10.667969 4.773437 10.667969 10.664062zm0 0"/><path d="m149.332031 53.332031c0 5.890625-4.773437 10.667969-10.664062 10.667969s-10.667969-4.777344-10.667969-10.667969 4.777344-10.664062 10.667969-10.664062 10.664062 4.773437 10.664062 10.664062zm0 0"/><path d="m277.3125 320c-22.65625 0-40.980469-12.757812-42.601562-29.632812-.554688-5.867188 3.753906-11.09375 9.597656-11.648438 5.78125-.210938 11.074218 3.734375 11.648437 9.601562.40625 4.332032 8.726563 10.347657 21.355469 10.347657 12.84375 0 21.355469-6.421875 21.355469-10.667969 0-4.609375-13.527344-9.621094-22.636719-10.753906-4.222656-.511719-41.363281-5.820313-41.363281-31.914063 0-17.941406 18.75-32 42.6875-32 22.65625 0 40.980469 12.738281 42.601562 29.613281.554688 5.867188-3.753906 11.09375-9.601562 11.648438-5.78125.359375-11.070313-3.714844-11.644531-9.601562-.40625-4.332032-8.726563-10.324219-21.355469-10.324219-12.84375 0-21.355469 6.421875-21.355469 10.664062 0 4.628907 13.546875 9.621094 22.65625 10.753907 4.246094.511718 41.34375 5.867187 41.34375 31.914062 0 17.941406-18.753906 32-42.6875 32zm0 0"/><path d="m394.667969 320h-21.335938c-17.640625 0-32-14.355469-32-32v-42.667969c0-17.640625 14.359375-32 32-32h21.335938c17.640625 0 32 14.359375 32 32v42.667969c0 17.644531-14.359375 32-32 32zm-21.335938-85.332031c-5.867187 0-10.664062 4.796875-10.664062 10.664062v42.667969c0 5.867188 4.796875 10.667969 10.664062 10.667969h21.335938c5.867187 0 10.664062-4.800781 10.664062-10.667969v-42.667969c0-5.867187-4.796875-10.664062-10.664062-10.664062zm0 0"/><path d="m501.332031 320h-42.664062c-5.890625 0-10.667969-4.777344-10.667969-10.667969v-85.332031c0-5.886719 4.777344-10.667969 10.667969-10.667969 5.886719 0 10.664062 4.78125 10.664062 10.667969v74.667969h32c5.890625 0 10.667969 4.777343 10.667969 10.664062 0 5.890625-4.777344 10.667969-10.667969 10.667969zm0 0"/><path d="m416 320c-2.730469 0-5.460938-1.046875-7.550781-3.113281l-21.335938-21.335938c-4.160156-4.160156-4.160156-10.921875 0-15.082031 4.160157-4.160156 10.925781-4.160156 15.085938 0l21.332031 21.332031c4.160156 4.160157 4.160156 10.925781 0 15.085938-2.070312 2.066406-4.800781 3.113281-7.53125 3.113281zm0 0"/><path d="m160 362.667969c-1.601562 0-3.222656-.363281-4.777344-1.132813-5.269531-2.644531-7.402344-9.042968-4.78125-14.3125l42.667969-85.335937c2.667969-5.246094 9.046875-7.402344 14.316406-4.777344 5.265625 2.644531 7.402344 9.046875 4.777344 14.316406l-42.667969 85.332031c-1.875 3.734376-5.632812 5.910157-9.535156 5.910157zm0 0"/><path d="m181.332031 320c-3.902343 0-7.65625-2.175781-9.535156-5.886719l-21.332031-42.667969c-2.625-5.269531-.492188-11.667968 4.777344-14.316406 5.292968-2.644531 11.667968-.488281 14.316406 4.78125l21.332031 42.664063c2.625 5.269531.492187 11.671875-4.777344 14.316406-1.558593.746094-3.179687 1.109375-4.78125 1.109375zm0 0"/><path d="m117.332031 320c-5.886719 0-10.664062-4.777344-10.664062-10.667969v-53.332031l-12.800781 17.066406c-4.03125 5.375-13.035157 5.375-17.089844 0l-12.777344-17.066406v53.332031c0 5.890625-4.777344 10.667969-10.667969 10.667969-5.886719 0-10.664062-4.777344-10.664062-10.667969v-85.332031c0-4.585938 2.941406-8.660156 7.292969-10.132812 4.332031-1.386719 9.152343.042968 11.90625 3.734374l23.464843 31.292969 23.46875-31.292969c2.773438-3.691406 7.574219-5.101562 11.925781-3.734374 4.328126 1.472656 7.273438 5.546874 7.273438 10.132812v85.332031c0 5.890625-4.777344 10.667969-10.667969 10.667969zm0 0"/></svg>